<svg xmlns="http://www.w3.org/2000/svg" xmlns:xlink="http://www.w3.org/1999/xlink" width="151" height="18" viewBox="0 0 151 18">
    <defs>
        <path id="a" d="M.105.01h14.97v17.24H.105z"/>
    </defs>
    <g fill="none" fill-rule="evenodd">
        <path fill="#1E407B" d="M132.89.58l-4.044.008L128.88 18l4.046-.008zM106.3 11.158l-4.222.009 1.546-5.426c.197-.698.42-1.549.42-2.137h.257c.002.588.23 1.409.432 2.135l1.567 5.42zm3.449 6.4l2.233-.004L106.854.366l-5.26.01-5.155 17.208 2.387-.005s1.443-.002 1.842-1.406c.266-.933.522-1.784.522-1.784l6.008-.01s.304.993.56 1.79c.44 1.379 1.99 1.39 1.99 1.39zM145.144 11.084l-4.223.008 1.546-5.426c.2-.698.422-1.548.42-2.136h.257c.001.588.231 1.408.433 2.135l1.567 5.42zm3.45 6.4l2.232-.004L145.697.292l-5.258.01-5.156 17.207 2.387-.004s1.443-.003 1.843-1.406c.265-.933.522-1.784.522-1.784l6.007-.011s.306.993.56 1.79c.44 1.38 1.992 1.39 1.992 1.39z"/>
        <g transform="translate(63.68 .375)">
            <mask id="b" fill="#fff">
                <use xlink:href="#a"/>
            </mask>
            <path fill="#1E407B" d="M10.508 6.62c.004 2.314-1.127 2.88-3.224 2.884l-3.068.006-.013-6.324L7.47 3.18c2.153-.004 3.034 1.434 3.038 3.44zm4.567 10.622l-4.1-5.174c2.293-.896 3.45-2.808 3.445-5.622C14.412 2.181 11.743.002 7.69.01L.106.024.14 17.217l4.092-.008-.008-4.265 2.75-.005s2.447 2.937 2.806 3.434c.68.94 1.831.876 1.831.876l3.465-.007z" mask="url(#b)"/>
        </g>
        <path fill="#1E407B" d="M81.913 17.612l11.673-.023-.36-3.216-7.397.014-.007-3.238 6.394-.012-.006-3.188-6.394.012-.008-4.388 7.113-.014.015-3.215-11.057.02zM114.637 17.549l11.605-.022-.386-3.299-7.303.014-.028-13.948-3.923.008zM8.043 4.092c-1.048 0-1.929.5-2.618 1.485-.677.968-1.02 2.344-1.02 4.09 0 1.38.281 2.452.836 3.188.564.749 1.242 1.129 2.014 1.129.84 0 1.578-.339 2.192-1.008.605-.658 1.015-1.615 1.22-2.844l.014-.09-.077-.051A5 5 0 0 1 8.87 8.015a5.815 5.815 0 0 1-.605-2.597c0-.383.037-.772.11-1.156l.033-.17h-.364zm47.215-.517c-1.057.026-2.048.43-2.947 1.2-.889.76-1.61 1.779-2.142 3.026-.53 1.243-.8 2.58-.8 3.971 0 .768.155 1.362.46 1.766.315.418.74.63 1.263.63.753 0 1.44-.507 2.042-1.51.582-.971 1.106-2.715 1.557-5.183l.747-3.904-.18.004zm.868 14.039c-.807 0-1.411-.191-1.794-.568-.383-.377-.577-1.008-.577-1.875l.07-1.111s-1.049 3.402-4.198 3.554c-1.374 0-2.505-.541-3.36-1.609a5.265 5.265 0 0 1-.486-.73l-.088-.159-.137.12c-.485.427-.982.814-1.477 1.146-1.208.817-2.602 1.232-4.143 1.232-1.228 0-2.165-.35-2.783-1.042-.624-.695-.94-1.726-.94-3.064 0-.678.175-1.913.523-3.667.33-1.575.49-2.636.49-3.241 0-.64-.35-.734-.558-.734-.384 0-.864.412-1.509 1.297-.604.83-1.216 1.939-1.818 3.296a26.495 26.495 0 0 0-1.473 4.308c-.27 1.154-.58 1.928-.924 2.303-.333.36-.884.544-1.64.544-.774 0-1.34-.356-1.73-1.087-.4-.752-.603-1.68-.603-2.76 0-.926.126-2.286.375-4.044.203-1.601.302-2.622.302-3.123 0-.64-.35-.734-.56-.734-.433 0-.94.456-1.55 1.396-.578.889-1.145 2.041-1.684 3.424a32.497 32.497 0 0 0-1.302 4.082c-.27 1.129-.58 1.897-.926 2.285-.333.372-.871.56-1.6.56-.893 0-1.506-.453-1.874-1.386-.38-.963-.572-2.536-.572-4.677 0-.325.008-.648.018-.97l.005-.18-.18.036c-.947.188-1.918.304-2.887.343l-.11.005-.026.107c-.467 2.03-1.4 3.677-2.773 4.894-1.368 1.213-2.94 1.829-4.673 1.829-1.466 0-2.734-.352-3.768-1.047a6.717 6.717 0 0 1-2.373-2.786C.273 12.624 0 11.35 0 9.999c0-1.842.362-3.505 1.075-4.944.71-1.434 1.704-2.57 2.954-3.378A7.549 7.549 0 0 1 8.194.463c1.85 0 3.362.636 4.492 1.891 1.139 1.264 1.815 2.847 2.012 4.704l.015.137.139-.009c.874-.055 1.886-.207 3.008-.451l.097-.022.016-.096c.231-1.429.564-2.825.99-4.148.214-.68.568-1.182 1.05-1.494C20.499.66 21.199.5 22.093.5c.585 0 .853.088.975.163.153.094.231.29.231.58 0 .38-.188 1.263-.559 2.623a60.5 60.5 0 0 0-.602 2.576c-.152.732-.28 1.65-.378 2.731l-.108 1.168.39-1.108c.67-1.9 1.478-3.53 2.405-4.842.925-1.31 1.885-2.297 2.854-2.936C28.261.821 29.175.5 30.02.5c.829 0 1.418.183 1.75.544.338.365.508.942.508 1.713 0 .773-.239 2.204-.71 4.255-.199.88-.339 1.553-.415 2.003l-.215 1.273.494-1.196c1.237-2.994 2.628-5.201 4.133-6.561C37.056 1.183 38.464.5 39.748.5c1.545 0 2.296.739 2.296 2.257 0 .945-.277 2.687-.823 5.18-.476 2.14-.717 3.58-.717 4.278 0 1.34.672 1.621 1.235 1.621.543 0 1.158-.308 1.881-.94.366-.321.807-.759 1.313-1.302l.037-.04.002-.054c.035-1.858.495-3.64 1.366-5.296.911-1.732 2.141-3.144 3.655-4.197C51.5.957 53.122.426 54.81.426c.498 0 .843.092 1 .266.17.19.317.548.436 1.063l.032.138.14-.029a7.655 7.655 0 0 1 1.548-.145c.56 0 .994.136 1.29.405.298.27.442.647.442 1.151 0 .553-.125 1.539-.373 2.93a61.217 61.217 0 0 0-.64 4.314 42.775 42.775 0 0 0-.226 4.615c0 .893-.183 1.538-.543 1.915-.358.375-.96.565-1.791.565z"/>
    </g>
</svg>
